<?xml version="1.0" standalone="no"?>
<!DOCTYPE svg PUBLIC "-//W3C//DTD SVG 1.1//EN" "http://www.w3.org/Graphics/SVG/1.1/DTD/svg11.dtd" >
<svg xmlns="http://www.w3.org/2000/svg" xmlns:xlink="http://www.w3.org/1999/xlink" version="1.1">
<metadata>
Created by FontForge 20201107 at Sun Mar 23 00:48:06 2025
 By 
(c)2022 DOT COLON.
</metadata>
<defs>
<font id="Melete-Regular" horiz-adv-x="3192" >
  <font-face 
    font-family="Melete"
    font-weight="400"
    font-stretch="semi-expanded"
    units-per-em="2048"
    panose-1="0 0 0 0 0 0 0 0 0 0"
    ascent="1638"
    descent="-410"
    x-height="1434"
    cap-height="1434"
    bbox="190 -410 3147 1639"
    underline-thickness="102"
    underline-position="-255"
    unicode-range="U+0020-2026"
  />
<missing-glyph horiz-adv-x="1024" 
d="M840 1638v-2048h-650v2048h650zM342 -268h340v67h-209l143 97h66v67h-340v-67h143l-143 -97v-67zM342 10h340v232h-340v-232zM342 365h340v231h-205v-115h70v47h67v-96h-204v164h-68v-231zM342 641h340v205h-68v-135h-272v-70zM342 758h205v143h135v68h-340v-68h135v-76
h-135v-67zM342 1024h340v70h-135v143h-205v-213zM342 1290h340v68h-135v76h135v67h-338v-67h133v-76h-135v-68zM410 78v96h204v-96h-204zM410 1094v73h67v-73h-67z" />
    <glyph glyph-name=".notdef" horiz-adv-x="1024" 
d="M840 1638v-2048h-650v2048h650zM342 -268h340v67h-209l143 97h66v67h-340v-67h143l-143 -97v-67zM342 10h340v232h-340v-232zM342 365h340v231h-205v-115h70v47h67v-96h-204v164h-68v-231zM342 641h340v205h-68v-135h-272v-70zM342 758h205v143h135v68h-340v-68h135v-76
h-135v-67zM342 1024h340v70h-135v143h-205v-213zM342 1290h340v68h-135v76h135v67h-338v-67h133v-76h-135v-68zM410 78v96h204v-96h-204zM410 1094v73h67v-73h-67z" />
    <glyph glyph-name=".null" horiz-adv-x="0" 
 />
    <glyph glyph-name="nonmarkingreturn" horiz-adv-x="682" 
 />
    <glyph glyph-name="space" unicode=" " horiz-adv-x="1241" 
 />
    <glyph glyph-name="space" unicode="&#xa0;" horiz-adv-x="1241" 
 />
    <glyph glyph-name="exclam" unicode="!" horiz-adv-x="1459" 
d="M610 220h239v-220h-239v220zM617 334v1100h226v-1100h-226z" />
    <glyph glyph-name="quotedbl" unicode="&#x22;" horiz-adv-x="1653" 
d="M940 1434h239v-291l-206 -206h-33v497zM475 937v497h239v-291l-206 -206h-33z" />
    <glyph glyph-name="numbersign" unicode="#" horiz-adv-x="3267" 
d="M1278 1434h209v-33l-96 -320h718l106 353h209v-33l-96 -320h432v-204h-494l-96 -320h487v-205h-549l-105 -352h-209v33l96 319h-719l-105 -352h-209v33l96 319h-432v205h494l96 320h-487v204h548zM1233 557h719l96 320h-719z" />
    <glyph glyph-name="percent" unicode="%" horiz-adv-x="3301" 
d="M1756 1434h209v-33l-420 -1401h-210v33zM449 890v158q0 206 90.5 296t295.5 90h158q205 0 295 -90.5t90 -295.5v-158q0 -205 -90 -295.5t-295 -90.5h-158q-205 0 -295.5 90t-90.5 296zM674 913q1 -130 38 -166.5t167 -36.5h70q130 0 167 36.5t37 166.5v111q0 130 -37 167
t-167 37h-71q-130 0 -167 -37t-37 -167v-111zM1923 396v158q0 206 90.5 296t295.5 90h157q206 0 296 -90t90 -296v-158q0 -206 -90 -296t-296 -90h-157q-205 0 -295.5 90t-90.5 296zM2148 420q0 -130 37 -167t167 -37h71q130 0 167 37t37 167v110q0 130 -37 167t-167 37h-71
q-130 0 -167 -37t-37 -167v-110z" />
    <glyph glyph-name="ampersand" unicode="&#x26;" horiz-adv-x="3009" 
d="M878 0q-206 0 -296 90t-90 296v48q0 205 90 295t296 90h432q129 0 166 37.5t37 166.5v1q0 130 -37 167t-166 37h-224q-129 0 -166 -37t-37 -167v-86h-226v110q0 206 90.5 296t295.5 90h310q205 0 295.5 -90t90.5 -296v-49q0 -205 -90 -295t-296 -90h-432q-130 0 -167 -37
t-37 -166v-1q0 -130 37 -167t167 -37h1067q129 0 166 37t37 167v204h-357v205h868v-205h-285v-228q0 -206 -90.5 -296t-295.5 -90h-1153z" />
    <glyph glyph-name="quotesingle" unicode="'" horiz-adv-x="1188" 
d="M475 1434h239v-291l-206 -206h-33v497z" />
    <glyph glyph-name="parenleft" unicode="(" horiz-adv-x="1807" 
d="M610 1252q0 206 90 296t296 90h354v-205h-311q-129 0 -166 -37t-37 -167v-1024q0 -130 37 -167t166 -37h311v-206h-354q-206 0 -296 90.5t-90 295.5v1071z" />
    <glyph glyph-name="parenright" unicode=")" horiz-adv-x="1807" 
d="M1197 1252v-1071q0 -205 -90.5 -295.5t-295.5 -90.5h-353v206h310q129 0 166.5 37t37.5 167v1024q0 130 -37.5 167t-166.5 37h-310v205h353q205 0 295.5 -90t90.5 -296z" />
    <glyph glyph-name="asterisk" unicode="*" horiz-adv-x="2812" 
d="M1302 1229h210v-356l465 256h300v-31l-692 -381l692 -381v-32h-300l-465 256v-355h-210v355l-466 -256h-299v32l691 381l-691 381v31h299l466 -256v356z" />
    <glyph glyph-name="comma" unicode="," horiz-adv-x="984" 
d="M373 230h238v-238l-205 -206h-33v444z" />
    <glyph glyph-name="hyphen" unicode="-" horiz-adv-x="1939" 
d="M516 819h907v-205h-907v205z" />
    <glyph glyph-name="period" unicode="." horiz-adv-x="984" 
d="M373 0v239h238v-239h-238z" />
    <glyph glyph-name="slash" unicode="/" horiz-adv-x="1731" 
d="M1184 1638h215v-32l-850 -1811h-215v33z" />
    <glyph glyph-name="zero" unicode="0" 
d="M2214 1440q206 0 296 -90t90 -296v-662q0 -206 -90 -296t-296 -90h-1235q-205 0 -295 90t-90 296v662q0 206 90 296t295 90h1235zM819 559l1554 531q-6 89 -46 116.5t-156 27.5h-1148q-130 0 -167 -37t-37 -167v-471zM822 345q7 -82 48 -107.5t153 -25.5h1148
q129 0 166.5 37t37.5 167v458z" />
    <glyph glyph-name="one" unicode="1" 
d="M1544 1434q205 0 295 -90t90 -296v-1048h-225v1024q0 130 -37 167t-167 37h-433v206h477z" />
    <glyph glyph-name="two" unicode="2" 
d="M2165 1434q205 0 295.5 -90t90.5 -296v-49q0 -205 -90 -295t-296 -90h-1116q-130 0 -167 -37t-37 -166v-205h1725v-206h-1950v434q0 205 90 295t296 90h1116q129 0 166.5 37.5t37.5 166.5v1q0 130 -37.5 167t-166.5 37h-1449v206h1492z" />
    <glyph glyph-name="three" unicode="3" 
d="M2160 1434q206 0 296 -90t90 -296v-662q0 -206 -90 -296t-296 -90h-1527v206h1484q129 0 166 37t37 167v204h-847v205h847v205q0 130 -37 167t-166 37h-1467v206h1510z" />
    <glyph glyph-name="four" unicode="4" 
d="M787 1023q0 -129 37 -166.5t167 -37.5h1150v615h225v-615h366v-205h-366v-614h-225v614h-1193q-206 0 -296 90t-90 295v447h225v-423z" />
    <glyph glyph-name="five" unicode="5" 
d="M636 0v206h1500q129 0 166.5 37t37.5 167v1q0 129 -37.5 166t-166.5 37h-1481v820h1856v-206h-1630v-409h1298q206 0 296 -90t90 -295v-48q0 -206 -90.5 -296t-295.5 -90h-1543z" />
    <glyph glyph-name="six" unicode="6" 
d="M2477 1434v-206h-1493q-92 0 -118.5 -27t-26.5 -119v-263h1373q206 0 296 -90t90 -295v-48q0 -206 -90 -296t-296 -90h-1213q-205 0 -295.5 90t-90.5 296v662q0 206 90.5 296t295.5 90h1478zM839 410q0 -130 36.5 -167t166.5 -37h1127q129 0 166.5 37t37.5 167v1
q0 129 -37.5 166t-166.5 37h-1330v-204z" />
    <glyph glyph-name="seven" unicode="7" 
d="M781 0v33l1555 1202h-1802v199h2266v-100l-1715 -1334h-304z" />
    <glyph glyph-name="eight" unicode="8" 
d="M931 0q-205 0 -295 90.5t-90 295.5v48q0 205 90 295t295 90h1121q130 0 167.5 37.5t37.5 166.5v1q0 130 -37.5 167t-167.5 37h-911q-130 0 -167 -37t-37 -167v-86h-225v110q0 205 90 295.5t295 90.5h999q206 0 296 -90t90 -296v-49q0 -205 -90 -295t-296 -90h-1121
q-130 0 -167 -37t-37 -166v-1q0 -130 37 -167t167 -37h1244q129 0 166.5 37t37.5 167v139h225v-163q0 -206 -90 -296t-296 -90h-1331z" />
    <glyph glyph-name="nine" unicode="9" 
d="M717 0v206h1433q130 0 167 37t37 167v204h-1373q-205 0 -295 90t-90 295v49q0 205 90 295.5t295 90.5h1213q205 0 295 -90t90 -296v-662q0 -206 -90 -296t-295 -90h-1477zM821 1023q0 -129 37 -166.5t167 -37.5h1329v205q0 130 -37 167t-167 37h-1125q-130 0 -167 -37
t-37 -167v-1z" />
    <glyph glyph-name="colon" unicode=":" horiz-adv-x="984" 
d="M373 296h238v-239h-238v239zM373 1049v237h238v-237h-238z" />
    <glyph glyph-name="semicolon" unicode=";" horiz-adv-x="984" 
d="M373 1286h238v-237h-238v237zM373 -147v443h238v-238l-205 -205h-33z" />
    <glyph glyph-name="question" unicode="?" horiz-adv-x="2879" 
d="M1997 1434q205 0 295.5 -90t90.5 -296v-48q0 -206 -90.5 -296t-295.5 -90h-546v-280h-225v485h736q129 0 166.5 37t37.5 167v2q0 130 -37.5 167.5t-166.5 37.5h-1611v204h1646zM1219 0v220h238v-220h-238z" />
    <glyph glyph-name="at" unicode="@" horiz-adv-x="3286" 
d="M979 -206q-205 0 -295 90t-90 296v1073q0 206 90 296t295 90h1328q205 0 295 -90t90 -296v-969h-1204q-206 0 -295.5 90t-89.5 295v99q0 206 90 296t295 90h696v-666h283v742q0 130 -37 167t-167 37h-1240q-130 0 -167 -37t-37 -167v-1026q0 -130 37 -167t167 -37h1669
v-206h-1713zM1328 692q0 -129 37 -166.5t167 -37.5h427v460h-427q-130 0 -167 -37.5t-37 -166.5v-52z" />
    <glyph glyph-name="A" unicode="A" horiz-adv-x="3015" 
d="M2416 0l-911 1219l-906 -1219h-243v33l1040 1401h223l1041 -1401v-33h-244z" />
    <glyph glyph-name="B" unicode="B" horiz-adv-x="2854" 
d="M563 0v206h1386q130 0 167 37t37 167v1q0 129 -37 166t-167 37h-1368v205h1009v205q0 130 -37 167t-167 37h-823v206h868q205 0 295 -90t90 -296v-229h177q206 0 296 -90t90 -295v-48q0 -206 -90.5 -296t-295.5 -90h-1430z" />
    <glyph glyph-name="C" unicode="C" horiz-adv-x="3003" 
d="M2464 1434v-206h-1441q-130 0 -167 -37t-37 -167v-614q0 -130 37 -167t167 -37h1441v-206h-1485q-205 0 -295 90t-90 296v662q0 206 90 296t295 90h1485z" />
    <glyph glyph-name="D" unicode="D" horiz-adv-x="2993" 
d="M2013 1434q205 0 295.5 -90t90.5 -296v-662q0 -206 -90.5 -296t-295.5 -90h-1472v206h1429q129 0 166.5 37t37.5 167v614q0 130 -37.5 167t-166.5 37h-1429v206h1472z" />
    <glyph glyph-name="E" unicode="E" horiz-adv-x="2912" 
d="M628 819h584v-205h-584v205zM610 0v206h1705v-206h-1705zM610 1228v206h1682v-206h-1682z" />
    <glyph glyph-name="F" unicode="F" horiz-adv-x="2751" 
d="M610 1434h1799v-206h-1582v-409h540v-205h-540v-614h-217v1434z" />
    <glyph glyph-name="G" unicode="G" horiz-adv-x="3054" 
d="M2464 1434v-206h-1441q-130 0 -167 -37t-37 -167v-614q0 -130 37 -167t167 -37h1215v411h-709v206h935v-823h-1485q-205 0 -295 90t-90 296v662q0 206 90 296t295 90h1485z" />
    <glyph glyph-name="H" unicode="H" horiz-adv-x="3172" 
d="M610 1434h226v-611h1501v611h225v-1434h-225v617h-1501v-617h-226v1434z" />
    <glyph glyph-name="I" unicode="I" horiz-adv-x="1445" 
d="M610 1434h226v-1434h-226v1434z" />
    <glyph glyph-name="J" unicode="J" horiz-adv-x="2885" 
d="M2050 1434h225v-1048q0 -206 -90.5 -296t-295.5 -90h-1031q-206 0 -296 90t-90 296v328h224v-304q0 -130 37.5 -167t166.5 -37h946q129 0 166.5 37t37.5 167v1024z" />
    <glyph glyph-name="K" unicode="K" horiz-adv-x="2806" 
d="M610 1434h226v-1434h-226v1434zM919 691v51l1135 692h293v-33l-1123 -677l1155 -691v-33h-318z" />
    <glyph glyph-name="L" unicode="L" horiz-adv-x="2823" 
d="M610 1434h229v-1228h1605v-206h-1834v1434z" />
    <glyph glyph-name="M" unicode="M" horiz-adv-x="3399" 
d="M2789 1434v-1434h-225v1181l-893 -695h-62l-1186 915v33h303l914 -705l915 705h234z" />
    <glyph glyph-name="N" unicode="N" horiz-adv-x="3100" 
d="M2378 -20l-1542 1135v-1115h-226v1454h113l1542 -1131v1111h225v-1454h-112z" />
    <glyph glyph-name="O" unicode="O" 
d="M2214 1434q206 0 296 -90t90 -296v-662q0 -206 -90 -296t-296 -90h-1235q-205 0 -295 90t-90 296v662q0 206 90 296t295 90h1235zM819 410q0 -130 37 -167t167 -37h1148q129 0 166.5 37t37.5 167v614q0 130 -37.5 167t-166.5 37h-1148q-130 0 -167 -37t-37 -167v-614z
" />
    <glyph glyph-name="P" unicode="P" horiz-adv-x="2952" 
d="M610 1434h1509q205 0 295.5 -90t90.5 -296v-49q0 -205 -90 -295t-296 -90h-1283v-614h-226v1434zM836 819h1240q129 0 166 37.5t37 166.5v1q0 130 -37 167t-166 37h-1240v-409z" />
    <glyph glyph-name="Q" unicode="Q" 
d="M2214 1438q206 0 296 -90t90 -296v-662q0 -206 -90 -296t-296 -90h-378l348 -381v-33h-248l-385 414h-572q-205 0 -295 90t-90 296v662q0 206 90 296t295 90h1235zM819 414q0 -130 37 -167t167 -37h1148q129 0 166.5 37t37.5 167v614q0 130 -37.5 167t-166.5 37h-1148
q-130 0 -167 -37t-37 -167v-614z" />
    <glyph glyph-name="R" unicode="R" horiz-adv-x="2870" 
d="M1911 1434q205 0 295 -90t90 -296v-49q0 -205 -90 -295t-295 -90h-284l722 -581v-33h-272l-892 717v102h682q130 0 167 37.5t37 166.5v1q0 130 -37 167t-167 37h-1444v206h1488z" />
    <glyph glyph-name="S" unicode="S" horiz-adv-x="2964" 
d="M2306 1434v-206h-1284q-129 0 -166.5 -37t-37.5 -164t37.5 -164t166.5 -37h981q205 0 295 -90.5t90 -295.5v-54q0 -205 -90 -295.5t-295 -90.5h-1423v206h1379q130 0 167 37t37 167v7q0 130 -37 167t-167 37h-980q-205 0 -295.5 90.5t-90.5 295.5v41q0 206 90.5 296
t295.5 90h1327z" />
    <glyph glyph-name="T" unicode="T" horiz-adv-x="2844" 
d="M2447 1434v-206h-912v-1228h-225v1228h-913v206h2050z" />
    <glyph glyph-name="U" unicode="U" horiz-adv-x="3160" 
d="M996 0q-206 0 -296 90t-90 296v1048h226v-1024q0 -130 37 -167t166 -37h1081q130 0 166.5 37t36.5 167v1024h226v-1048q0 -206 -90 -296t-295 -90h-1168z" />
    <glyph glyph-name="V" unicode="V" horiz-adv-x="3074" 
d="M633 1434l905 -1230l904 1230h247v-33l-1040 -1401h-224l-1040 1401v33h248z" />
    <glyph glyph-name="W" unicode="W" horiz-adv-x="3556" 
d="M2407 0h-240v33l741 1401h239v-33zM410 1401v33h236l608 -1213l625 1192h238v-33l-727 -1380h-272z" />
    <glyph glyph-name="X" unicode="X" horiz-adv-x="2709" 
d="M438 1401v33h270l647 -583l651 583h266v-33l-764 -688l756 -680v-33h-276l-635 573l-637 -573h-275v33l759 679z" />
    <glyph glyph-name="Y" unicode="Y" horiz-adv-x="2792" 
d="M584 1434l814 -757l813 757h280v-33l-983 -909v-492h-225v492l-982 909v33h283z" />
    <glyph glyph-name="Z" unicode="Z" horiz-adv-x="2813" 
d="M503 1434h1873l2 -100l-1463 -1128h1475v-206h-1960v99l1472 1129h-1399v206z" />
    <glyph glyph-name="bracketleft" unicode="[" horiz-adv-x="1807" 
d="M610 1638h740v-205h-514v-1432h514v-206h-740v1843z" />
    <glyph glyph-name="backslash" unicode="\" horiz-adv-x="1731" 
d="M549 1638l850 -1810v-33h-215l-850 1811v32h215z" />
    <glyph glyph-name="bracketright" unicode="]" horiz-adv-x="1807" 
d="M1197 1638v-1843h-739v206h514v1432h-514v205h739z" />
    <glyph glyph-name="asciicircum" unicode="^" horiz-adv-x="2470" 
d="M1603 717l-368 498l-367 -498h-258v33l515 684h224l512 -684v-33h-258z" />
    <glyph glyph-name="underscore" unicode="_" horiz-adv-x="2713" 
d="M610 0h1492v-206h-1492v206z" />
    <glyph glyph-name="a" unicode="a" horiz-adv-x="2993" 
d="M995 607q-129 0 -166 -36.5t-37 -163.5q0 -128 37 -164.5t166 -36.5h1193v401h-1193zM574 386v41q0 206 90 296t295 90h1229v211q0 130 -36.5 167t-166.5 37h-1317v206h1352q205 0 295 -90t90 -296v-919h-3v-129h-1443q-205 0 -295 90t-90 296z" />
    <glyph glyph-name="b" unicode="b" horiz-adv-x="3050" 
d="M610 0v1434h226v-615h1283q206 0 296 -90t90 -295v-48q0 -206 -90.5 -296t-295.5 -90h-1509zM836 206h1240q129 0 166 37t37 167v1q0 129 -37 166t-166 37h-1240v-408z" />
    <glyph glyph-name="c" unicode="c" horiz-adv-x="3003" 
d="M2464 1434v-206h-1441q-130 0 -167 -37t-37 -167v-614q0 -130 37 -167t167 -37h1441v-206h-1485q-205 0 -295 90t-90 296v662q0 206 90 296t295 90h1485z" />
    <glyph glyph-name="d" unicode="d" horiz-adv-x="3050" 
d="M932 0q-206 0 -296 90t-90 296v48q0 205 90 295t296 90h1283v615h225v-1434h-1508zM771 410q0 -130 37.5 -167t166.5 -37h1240v408h-1240q-129 0 -166.5 -37t-37.5 -166v-1z" />
    <glyph glyph-name="e" unicode="e" horiz-adv-x="3090" 
d="M2107 1434q205 0 295 -90t90 -296v-434h-1673v-204q0 -130 37 -167t167 -37h1469v-206h-1513q-205 0 -295 90t-90 296v662q0 206 90 296t295 90h1128zM819 819h1448v205q0 130 -37 167t-167 37h-1040q-130 0 -167 -37t-37 -167v-205z" />
    <glyph glyph-name="f" unicode="f" horiz-adv-x="3005" 
d="M782 1048q0 206 90 296t296 90h1366v-206h-1331q-129 0 -166.5 -37t-37.5 -167v-205h1507v-205h-1507v-614h-217v614h-318v205h318v229z" />
    <glyph glyph-name="g" unicode="g" horiz-adv-x="3159" 
d="M1015 1228q-129 0 -166.5 -37t-37.5 -164t37.5 -164t166.5 -37h1308v402h-1308zM594 1007v41q0 206 90 296t295 90h1570v-1048q0 -206 -90 -296t-295 -90h-1433v206h1389q130 0 166.5 37t36.5 167v211h-1344q-205 0 -295 90t-90 296z" />
    <glyph glyph-name="h" unicode="h" horiz-adv-x="3176" 
d="M610 1434h226v-611h1378q205 0 295 -90.5t90 -295.5v-437h-225v414q0 130 -37 166.5t-167 36.5h-1334v-617h-226v1434z" />
    <glyph glyph-name="i" unicode="i" horiz-adv-x="1445" 
d="M610 823h226v-823h-226v823zM610 1178v256h226v-256h-226z" />
    <glyph glyph-name="j" unicode="j" horiz-adv-x="2789" 
d="M1954 1434h225v-256h-225v256zM406 0v206h1343q130 0 167.5 37t37.5 167v413h225v-437q0 -206 -90.5 -296t-295.5 -90h-1387z" />
    <glyph glyph-name="k" unicode="k" horiz-adv-x="3172" 
d="M610 1434h226v-611h799l657 611h270v-33l-628 -578h243q205 0 295 -90t90 -296v-437h-225v414q0 130 -37 166.5t-167 36.5h-1297v-617h-226v1434z" />
    <glyph glyph-name="l" unicode="l" horiz-adv-x="2735" 
d="M610 1434h226v-1024q0 -130 37 -167t166 -37h1336v-206h-1379q-206 0 -296 90t-90 296v1048z" />
    <glyph glyph-name="m" unicode="m" horiz-adv-x="3471" 
d="M610 1434h1889q205 0 295.5 -90t90.5 -296v-1048h-226v1024q0 130 -37 167t-166 37h-596v-1228h-226v1228h-798v-1228h-226v1434z" />
    <glyph glyph-name="n" unicode="n" horiz-adv-x="3084" 
d="M610 1434h1501q205 0 295.5 -90.5t90.5 -295.5v-1048h-226v1024q0 130 -37 167t-167 37h-1231v-1228h-226v1434z" />
    <glyph glyph-name="o" unicode="o" 
d="M2214 1434q206 0 296 -90t90 -296v-662q0 -206 -90 -296t-296 -90h-1235q-205 0 -295 90t-90 296v662q0 206 90 296t295 90h1235zM819 410q0 -130 37 -167t167 -37h1148q129 0 166.5 37t37.5 167v614q0 130 -37.5 167t-166.5 37h-1148q-130 0 -167 -37t-37 -167v-614z
" />
    <glyph glyph-name="p" unicode="p" horiz-adv-x="2952" 
d="M610 1434h1509q205 0 295.5 -90t90.5 -296v-49q0 -205 -90 -295t-296 -90h-1283v-614h-226v1434zM836 819h1240q129 0 166 37.5t37 166.5v1q0 130 -37 167t-166 37h-1240v-409z" />
    <glyph glyph-name="q" unicode="q" horiz-adv-x="2952" 
d="M2342 1434v-1434h-225v614h-1283q-206 0 -296.5 90t-90.5 295v49q0 205 90.5 295.5t296.5 90.5h1508zM673 1023q0 -129 37.5 -166.5t166.5 -37.5h1240v409h-1240q-129 0 -166.5 -37t-37.5 -167v-1z" />
    <glyph glyph-name="r" unicode="r" horiz-adv-x="2685" 
d="M610 1048q0 206 90 296t296 90h1267v-206h-1224q-129 0 -166 -37t-37 -167v-1024h-226v1048z" />
    <glyph glyph-name="s" unicode="s" horiz-adv-x="2964" 
d="M2306 1434v-206h-1284q-129 0 -166.5 -37t-37.5 -164t37.5 -164t166.5 -37h981q205 0 295 -90.5t90 -295.5v-54q0 -205 -90 -295.5t-295 -90.5h-1423v206h1379q130 0 167 37t37 167v7q0 130 -37 167t-167 37h-980q-205 0 -295.5 90.5t-90.5 295.5v41q0 206 90.5 296
t295.5 90h1327z" />
    <glyph glyph-name="t" unicode="t" horiz-adv-x="2971" 
d="M447 819h381v615h226v-615h1444v-205h-1444v-204q0 -130 37 -167t166 -37h1241v-206h-1284q-206 0 -296 90t-90 296v228h-381v205z" />
    <glyph glyph-name="u" unicode="u" horiz-adv-x="3023" 
d="M897 0q-205 0 -295.5 90t-90.5 296v1048h225v-1024q0 -130 37.5 -167t166.5 -37h1248v1228h226v-1434h-1517z" />
    <glyph glyph-name="v" unicode="v" horiz-adv-x="3074" 
d="M2441 1434h248v-33l-1040 -1401h-224l-1040 1401v33h247l904 -1230z" />
    <glyph glyph-name="w" unicode="w" horiz-adv-x="3556" 
d="M2407 0h-240v33l741 1401h239v-33zM410 1401v33h236l608 -1213l625 1192h238v-33l-727 -1380h-272z" />
    <glyph glyph-name="x" unicode="x" horiz-adv-x="2709" 
d="M438 1401v33h270l647 -583l651 583h266v-33l-764 -688l756 -680v-33h-276l-635 573l-637 -573h-275v33l759 679z" />
    <glyph glyph-name="y" unicode="y" horiz-adv-x="2918" 
d="M649 1434l810 -753l812 753h275v-33l-1522 -1401h-263v33l547 507l-935 861v33h276z" />
    <glyph glyph-name="z" unicode="z" horiz-adv-x="2813" 
d="M503 1434h1873l2 -100l-1463 -1128h1475v-206h-1960v99l1472 1129h-1399v206z" />
    <glyph glyph-name="braceleft" unicode="{" horiz-adv-x="1772" 
d="M670 614h-297v205h297v433q0 205 90 295.5t295 90.5h260v-205h-216q-130 0 -167 -37t-37 -167v-1024q0 -130 37 -167t167 -37h216v-206h-260q-205 0 -295 90.5t-90 295.5v433z" />
    <glyph glyph-name="bar" unicode="|" horiz-adv-x="1445" 
d="M610 1638h226v-1843h-226v1843z" />
    <glyph glyph-name="braceright" unicode="}" horiz-adv-x="1772" 
d="M1103 181q0 -205 -90 -295.5t-295 -90.5h-260v206h216q130 0 167 37t37 167v1024q0 130 -37 167t-167 37h-216v205h260q205 0 295 -90.5t90 -295.5v-433h297v-205h-297v-433z" />
    <glyph glyph-name="asciitilde" unicode="~" horiz-adv-x="3033" 
d="M1404 790q0 129 -37 166t-167 37h-161q-129 0 -166 -37t-37 -166v-372h-226v395q0 205 90 295.5t296 90.5h247q205 0 295.5 -90.5t90.5 -295.5v-169q0 -129 37.5 -166.5t166.5 -37.5h161q129 0 166.5 37.5t37.5 166.5v372h225v-395q0 -206 -90.5 -296.5t-295.5 -90.5
h-247q-205 0 -295.5 90.5t-90.5 296.5v169z" />
    <glyph glyph-name="brokenbar" unicode="&#xa6;" horiz-adv-x="1445" 
d="M610 1638h226v-614h-226v614zM610 -205v615h226v-615h-226z" />
    <glyph glyph-name="periodcentered" unicode="&#xb7;" horiz-adv-x="1459" 
d="M610 598v238h239v-238h-239z" />
    <glyph glyph-name="quoteleft" unicode="&#x2018;" horiz-adv-x="1188" 
d="M714 937h-239v291l206 206h33v-497z" />
    <glyph glyph-name="quoteright" unicode="&#x2019;" horiz-adv-x="1188" 
d="M475 1434h239v-291l-206 -206h-33v497z" />
    <glyph glyph-name="quotedblleft" unicode="&#x201c;" horiz-adv-x="1653" 
d="M714 937h-239v291l206 206h33v-497zM940 937v291l206 206h33v-497h-239z" />
    <glyph glyph-name="quotedblright" unicode="&#x201d;" horiz-adv-x="1653" 
d="M940 1434h239v-291l-206 -206h-33v497zM475 937v497h239v-291l-206 -206h-33z" />
    <glyph glyph-name="bullet" unicode="&#x2022;" horiz-adv-x="1514" 
d="M610 569v295h294v-295h-294z" />
    <glyph glyph-name="ellipsis" unicode="&#x2026;" horiz-adv-x="2338" 
d="M1727 0v239h239v-239h-239zM373 0v239h238v-239h-238zM1051 0v239h238v-239h-238z" />
    <glyph glyph-name="A.salt" horiz-adv-x="2874" 
d="M387 0v33l1734 1401h284v-33l-779 -625h730v-206h-986l-712 -570h-271z" />
    <glyph glyph-name="R.salt" horiz-adv-x="3148" 
d="M2135 1434q205 0 295 -90.5t90 -295.5v-49q0 -205 -90 -295t-295 -90h-198l640 -581v-33h-272l-696 614h-773v-604h-226v1424h1525zM836 819h1255q130 0 167 37.5t37 166.5v1q0 130 -37 167t-167 37h-1255v-409z" />
    <glyph glyph-name="four.salt" horiz-adv-x="3135" 
d="M2331 1434v-615h365v-205h-365v-614h-226v614h-1557v434q0 205 90 295.5t295 90.5h1398zM773 819h1332v409h-1128q-130 0 -167 -37t-37 -167v-205z" />
    </font>
</defs>
</svg>
